<?xml version="1.0" encoding="UTF-8"?><svg id="a" xmlns="http://www.w3.org/2000/svg" viewBox="0 0 272 272"><defs><style>.b{isolation:isolate;}.c{fill:gold;}</style></defs><circle cx="136" cy="136" r="136"/><g class="b"><path class="c" d="M228.98,47.6l-5.09,29.23-2.38-.67,.32-2.11c.3-1.85,.45-3.41,.45-4.67,0-3.85-1.78-5.78-5.35-5.78-4.68,0-9.14,4.11-13.38,12.34-4.23,8.23-7.51,19.12-9.83,32.68-1.33,7.78-2.99,21.01-4.96,39.68s-2.96,30.38-2.96,35.12c0,3.78,.99,5.67,2.96,5.67,1.38,0,3.37-1.04,6-3.11l1.16,3.45c-1.89,1.33-5.2,3.56-9.93,6.67-3.61,2.37-6.79,4.63-9.54,6.78,0-6.67,.91-19.02,2.74-37.07,1.83-18.04,3.94-35.62,6.35-52.74l-2.32,5c-1.89,4.15-4.81,10.45-8.77,18.9l-14.05,30.12-14.31,30.45-1.42,3.11-1.61-2c1.5-5.04,2.26-10.04,2.26-15,0-8.22-1.12-20.86-3.35-37.9l-2-15c-.04-.15-.15-.96-.32-2.45-10.23,23.64-20.82,41.75-31.78,54.35-10.96,12.6-21.64,18.9-32.04,18.9-6.79,0-13.23-2.56-19.31-7.67-6.08-5.11-10.86-12.04-14.34-20.78-4-9.85-6-21.49-6-34.9,0-17.41,3.47-31.53,10.41-42.35,6.94-10.82,16-16.23,27.17-16.23,6.45,0,12.29,2.11,17.53,6.34,5.24,4.22,12.03,12.26,20.37,24.12,3.14,4.52,5.48,6.78,7.03,6.78,1.85,0,4.86-2,9.03-6l1.29,3.33-16.31,15.45-1.68-2.67c-7.82-12.67-15.52-22.4-23.08-29.18-7.56-6.78-14.5-10.17-20.82-10.17-8.08,0-14.56,4.11-19.44,12.34-4.88,8.23-7.32,19.16-7.32,32.79,0,17.04,3.66,30.88,10.99,41.51,7.33,10.63,16.86,15.95,28.59,15.95,10.31,0,20.47-5.72,30.46-17.17s19.54-28.25,28.66-50.41c-.82-8-1.23-14.71-1.23-20.12,0-13.41,1.7-26.6,5.09-39.57,3.39-12.97,6.85-19.45,10.38-19.45s5.22,5.11,5.22,15.34c0,6.6-1.03,14.17-3.09,22.73-2.06,8.56-5.48,19.43-10.25,32.62,.47,3.93,1.42,10.67,2.84,20.23,2.45,16.52,4.02,30.68,4.71,42.46,1.03-2.3,1.72-3.82,2.06-4.56l4.25-9,30.1-64.24c7.13-15.19,12.28-25.54,15.44-31.07,3.16-5.52,6.54-10.02,10.15-13.5,4.77-4.59,9.52-6.89,14.25-6.89Zm-84.26,59.69c2.58-7.71,4.65-15.56,6.22-23.56,1.57-8,2.35-14.71,2.35-20.12,0-5.71-1.14-8.56-3.42-8.56-1.72,0-3.18,3.13-4.38,9.39-1.2,6.26-1.81,13.8-1.81,22.62,0,5.71,.34,12.45,1.03,20.23Z"/></g></svg>